<?xml version="1.0" encoding="utf-8"?>
<svg xmlns="http://www.w3.org/2000/svg" viewBox="0 0 40 40" width="80" height="80">
  <path fill="#fff" d="M6.5,37.5v-35h18.293l8.707,8.707V37.5H6.5z" />
  <path fill="#4788c7" d="M24.586,3L33,11.414V37H7V3H24.586 M25,2H6v36h28V11L25,2L25,2z" />
  <path fill="#dff0fe" d="M24.5,11.5v-9h0.293l8.707,8.707V11.5H24.5z" />
  <path fill="#4788c7" d="M25,3.414L32.586,11H25V3.414 M25,2h-1v10h10v-1L25,2L25,2z" />
  <path fill="#fff" d="M21,19h13v19H21V19z" />
  <path fill="#4788c7" d="M33.5,18L33.5,18c0.275,0,0.5,0.225,0.5,0.5v1c0,0.275-0.225,0.5-0.5,0.5l0,0c-0.275,0-0.5-0.225-0.5-0.5v-1C33,18.225,33.225,18,33.5,18z" />
  <path fill="#4788c7" d="M20.5,38h1c0.275,0,0.5-0.225,0.5-0.5l0,0c0-0.275-0.225-0.5-0.5-0.5h-1c-0.275,0-0.5,0.225-0.5,0.5l0,0C20,37.775,20.225,38,20.5,38z" />
  <path fill="#98ccfd" d="M31,39.5c-4.687,0-8.5-3.813-8.5-8.5s3.813-8.5,8.5-8.5s8.5,3.813,8.5,8.5S35.687,39.5,31,39.5z" />
  <path fill="#4788c7" d="M31,23c4.411,0,8,3.589,8,8s-3.589,8-8,8s-8-3.589-8-8S26.589,23,31,23 M31,22c-4.971,0-9,4.029-9,9s4.029,9,9,9s9-4.029,9-9S35.971,22,31,22L31,22z" />
  <path fill="none" stroke="#fff" stroke-width="2" d="M31,36V26 M26,31h10" />
  <path fill="#4788c7" d="M29,16H11c-0.552,0-1-0.448-1-1l0,0c0-0.552,0.448-1,1-1h18c0.552,0,1,0.448,1,1l0,0C30,15.552,29.552,16,29,16z" />
  <path fill="#4788c7" d="M12.5,21h-2c-0.276,0-0.5-0.224-0.5-0.5l0,0c0-0.276,0.224-0.5,0.5-0.5h2c0.276,0,0.5,0.224,0.5,0.5l0,0C13,20.776,12.776,21,12.5,21z" />
  <path fill="#4788c7" d="M29.5,21h-14c-0.276,0-0.5-0.224-0.5-0.5l0,0c0-0.276,0.224-0.5,0.5-0.5h14c0.276,0,0.5,0.224,0.5,0.5l0,0C30,20.776,29.776,21,29.5,21z" />
  <path fill="#4788c7" d="M12.5,25h-2c-0.276,0-0.5-0.224-0.5-0.5l0,0c0-0.276,0.224-0.5,0.5-0.5h2c0.276,0,0.5,0.224,0.5,0.5l0,0C13,24.776,12.776,25,12.5,25z" />
  <path fill="#4788c7" d="M20.5,25h-5c-0.276,0-0.5-0.224-0.5-0.5l0,0c0-0.276,0.224-0.5,0.5-0.5h5c0.276,0,0.5,0.224,0.5,0.5l0,0C21,24.776,20.776,25,20.5,25z" />
  <path fill="#4788c7" d="M12.5,29h-2c-0.276,0-0.5-0.224-0.5-0.5l0,0c0-0.276,0.224-0.5,0.5-0.5h2c0.276,0,0.5,0.224,0.5,0.5l0,0C13,28.776,12.776,29,12.5,29z" />
  <path fill="#4788c7" d="M19.5,29h-4c-0.276,0-0.5-0.224-0.5-0.5l0,0c0-0.276,0.224-0.5,0.5-0.5h4c0.276,0,0.5,0.224,0.5,0.5l0,0C20,28.776,19.776,29,19.5,29z" />
</svg>