<?xml version="1.0" encoding="utf-8"?>
<svg xmlns="http://www.w3.org/2000/svg" viewBox="0 0 24 24" width="48" height="48">
  <path d="M4.4160156 1.9960938L1.0039062 2.0136719L1.0136719 4.0136719L3.0839844 4.0039062L6.4003906 11.962891L3.8828125 17L19 17L19 15L7.1171875 15L8.1171875 13L17 13L21 4L13 4L13 7L16 7L12 11L8 7L11 7L11 4L5.25 4L4.4160156 1.9960938 z M 11 4L13 4L13 2L11 2L11 4 z M 7 18 A 2 2 0 0 0 5 20 A 2 2 0 0 0 7 22 A 2 2 0 0 0 9 20 A 2 2 0 0 0 7 18 z M 17 18 A 2 2 0 0 0 15 20 A 2 2 0 0 0 17 22 A 2 2 0 0 0 19 20 A 2 2 0 0 0 17 18 z" fill="#5B5B5B" />
</svg>