<?xml version="1.0" encoding="utf-8"?>
<svg xmlns="http://www.w3.org/2000/svg" viewBox="0 0 48 48" width="96" height="96">
  <path fill="#3dd9eb" d="M38,6H10c-2.209,0-4,1.791-4,4v32h28V10C34,7.791,35.791,6,38,6z" />
  <path fill="#3dd9eb" d="M33,15h9v-5c0-2.209-1.791-4-4-4h-5V15z" />
  <path fill="#00b3d7" d="M30,35H16v-3h14V35z" />
  <path fill="#00b3d7" d="M30,23H16v-3h14V23z" />
  <path fill="#00b3d7" d="M30,29H16v-3h14V29z" />
  <path fill="#00b3d7" d="M13,23h-3v-3h3V23z" />
  <path fill="#00b3d7" d="M13,29h-3v-3h3V29z" />
  <path fill="#00b3d7" d="M13,35h-3v-3h3V35z" />
  <polygon fill="#a64aff" points="33.5,41.818 27,34 40,34" />
  <g>
    <rect width="13" height="2" x="27" y="32" fill="#6c19ff" />
  </g>
  <g>
    <polygon fill="#a64aff" points="33.5,38.182 27,46 40,46" />
  </g>
  <g>
    <rect width="13" height="2" x="27" y="46" fill="#6c19ff" />
  </g>
  <g>
    <polygon fill="#f5bc00" points="33.5,42.455 27,46 40,46" />
  </g>
  <g>
    <path fill="#00b3d7" d="M34,10c0-2.209,1.791-4,4-4H10c-2.209,0-4,1.791-4,4v5h28V10z" />
  </g>
</svg>